<svg width="24" height="25" viewBox="0 0 24 25" fill="none" xmlns="http://www.w3.org/2000/svg">
<g clip-path="url(#clip0_1412_10672)">
<path d="M20.54 5.73L19.15 4.05C18.88 3.71 18.47 3.5 18 3.5H6C5.53 3.5 5.12 3.71 4.84 4.05L3.46 5.73C3.17 6.07 3 6.52 3 7V19.5C3 20.6 3.9 21.5 5 21.5H19C20.1 21.5 21 20.6 21 19.5V7C21 6.52 20.83 6.07 20.54 5.73ZM6.24 5.5H17.76L18.57 6.47H5.44L6.24 5.5ZM5 19.5V8.5H19V19.5H5ZM13.45 10.5H10.55V13.5H8L12 17.5L16 13.5H13.45V10.5Z" fill="#323232"/>
</g>
<defs>
<clipPath id="clip0_1412_10672">
<rect width="24" height="24" fill="white" transform="translate(0 0.5)"/>
</clipPath>
</defs>
</svg>
