<svg width="20" height="23" viewBox="0 0 20 23" fill="none" xmlns="http://www.w3.org/2000/svg">
<g clip-path="url(#clip0_1469_12065)" filter="url(#filter0_d_1469_12065)">
<path d="M14.6667 2.66659H14V1.99992C14 1.63325 13.7 1.33325 13.3333 1.33325C12.9667 1.33325 12.6667 1.63325 12.6667 1.99992V2.66659H7.33333V1.99992C7.33333 1.63325 7.03333 1.33325 6.66667 1.33325C6.3 1.33325 6 1.63325 6 1.99992V2.66659H5.33333C4.59333 2.66659 4.00667 3.26659 4.00667 3.99992L4 13.3333C4 14.0666 4.59333 14.6666 5.33333 14.6666H14.6667C15.4 14.6666 16 14.0666 16 13.3333V3.99992C16 3.26659 15.4 2.66659 14.6667 2.66659ZM14.6667 12.6666C14.6667 13.0333 14.3667 13.3333 14 13.3333H6C5.63333 13.3333 5.33333 13.0333 5.33333 12.6666V5.99992H14.6667V12.6666ZM6.66667 7.33325H8V8.66659H6.66667V7.33325ZM9.33333 7.33325H10.6667V8.66659H9.33333V7.33325ZM12 7.33325H13.3333V8.66659H12V7.33325Z" fill="#323232"/>
</g>
<defs>
<filter id="filter0_d_1469_12065" x="-2" y="0" width="24" height="24" filterUnits="userSpaceOnUse" color-interpolation-filters="sRGB">
<feFlood flood-opacity="0" result="BackgroundImageFix"/>
<feColorMatrix in="SourceAlpha" type="matrix" values="0 0 0 0 0 0 0 0 0 0 0 0 0 0 0 0 0 0 127 0" result="hardAlpha"/>
<feOffset dy="4"/>
<feGaussianBlur stdDeviation="2"/>
<feComposite in2="hardAlpha" operator="out"/>
<feColorMatrix type="matrix" values="0 0 0 0 0 0 0 0 0 0 0 0 0 0 0 0 0 0 0.25 0"/>
<feBlend mode="normal" in2="BackgroundImageFix" result="effect1_dropShadow_1469_12065"/>
<feBlend mode="normal" in="SourceGraphic" in2="effect1_dropShadow_1469_12065" result="shape"/>
</filter>
<clipPath id="clip0_1469_12065">
<rect width="16" height="16" fill="white" transform="translate(2)"/>
</clipPath>
</defs>
</svg>
