<svg width="16" height="15" viewBox="0 0 16 15" fill="none" xmlns="http://www.w3.org/2000/svg">
<g filter="url(#filter0_d_1469_12067)">
<path d="M12.6667 1.66659H12V0.999919C12 0.633252 11.7 0.333252 11.3333 0.333252C10.9667 0.333252 10.6667 0.633252 10.6667 0.999919V1.66659H5.33333V0.999919C5.33333 0.633252 5.03333 0.333252 4.66667 0.333252C4.3 0.333252 4 0.633252 4 0.999919V1.66659H3.33333C2.59333 1.66659 2.00667 2.26659 2.00667 2.99992L2 12.3333C2 13.0666 2.59333 13.6666 3.33333 13.6666H12.6667C13.4 13.6666 14 13.0666 14 12.3333V2.99992C14 2.26659 13.4 1.66659 12.6667 1.66659ZM12.6667 11.6666C12.6667 12.0333 12.3667 12.3333 12 12.3333H4C3.63333 12.3333 3.33333 12.0333 3.33333 11.6666V4.99992H12.6667V11.6666ZM4.66667 6.33325H6V7.66659H4.66667V6.33325ZM7.33333 6.33325H8.66667V7.66659H7.33333V6.33325ZM10 6.33325H11.3333V7.66659H10V6.33325Z" fill="#323232"/>
</g>
<defs>
<filter id="filter0_d_1469_12067" x="-2" y="0.333252" width="20" height="21.3333" filterUnits="userSpaceOnUse" color-interpolation-filters="sRGB">
<feFlood flood-opacity="0" result="BackgroundImageFix"/>
<feColorMatrix in="SourceAlpha" type="matrix" values="0 0 0 0 0 0 0 0 0 0 0 0 0 0 0 0 0 0 127 0" result="hardAlpha"/>
<feOffset dy="4"/>
<feGaussianBlur stdDeviation="2"/>
<feComposite in2="hardAlpha" operator="out"/>
<feColorMatrix type="matrix" values="0 0 0 0 0 0 0 0 0 0 0 0 0 0 0 0 0 0 0.25 0"/>
<feBlend mode="normal" in2="BackgroundImageFix" result="effect1_dropShadow_1469_12067"/>
<feBlend mode="normal" in="SourceGraphic" in2="effect1_dropShadow_1469_12067" result="shape"/>
</filter>
</defs>
</svg>
