<svg width="84" height="84" viewBox="0 0 84 84" fill="none" xmlns="http://www.w3.org/2000/svg">
<path fill-rule="evenodd" clip-rule="evenodd" d="M42 84C47.5155 84 52.977 82.9136 58.0727 80.8029C63.1684 78.6922 67.7984 75.5985 71.6985 71.6985C75.5985 67.7984 78.6922 63.1684 80.8029 58.0727C82.9136 52.977 84 47.5155 84 42C84 36.4845 82.9136 31.023 80.8029 25.9273C78.6922 20.8316 75.5985 16.2016 71.6985 12.3015C67.7984 8.40145 63.1684 5.30776 58.0727 3.19706C52.977 1.08636 47.5155 -8.21876e-08 42 0C30.8609 1.65985e-07 20.178 4.42499 12.3015 12.3015C4.42499 20.178 0 30.8609 0 42C0 53.1391 4.42499 63.822 12.3015 71.6985C20.178 79.575 30.8609 84 42 84ZM40.9173 58.9867L64.2507 30.9867L57.0827 25.0133L37.016 49.0887L26.6327 38.7007L20.034 45.2993L34.034 59.2993L37.646 62.9113L40.9173 58.9867Z" fill="#213448"/>
</svg>
