<svg width="16" height="16" viewBox="0 0 16 16" fill="none" xmlns="http://www.w3.org/2000/svg">
<path d="M7.66683 2C9.34653 2 10.9574 2.66726 12.1452 3.85499C13.3329 5.04272 14.0002 6.65363 14.0002 8.33333C14.0002 10.013 13.3329 11.6239 12.1452 12.8117C10.9574 13.9994 9.34653 14.6667 7.66683 14.6667C5.98712 14.6667 4.37622 13.9994 3.18849 12.8117C2.00076 11.6239 1.3335 10.013 1.3335 8.33333C1.3335 6.65363 2.00076 5.04272 3.18849 3.85499C4.37622 2.66726 5.98712 2 7.66683 2ZM7.66683 2.66667C6.16394 2.66667 4.7226 3.26369 3.65989 4.3264C2.59719 5.3891 2.00016 6.83044 2.00016 8.33333C2.00016 9.83623 2.59719 11.2776 3.65989 12.3403C4.7226 13.403 6.16394 14 7.66683 14C8.41099 14 9.14786 13.8534 9.83537 13.5687C10.5229 13.2839 11.1476 12.8665 11.6738 12.3403C12.2 11.8141 12.6174 11.1894 12.9021 10.5019C13.1869 9.81436 13.3335 9.07749 13.3335 8.33333C13.3335 6.83044 12.7365 5.3891 11.6738 4.3264C10.6111 3.26369 9.16972 2.66667 7.66683 2.66667ZM7.3335 4.66667H8.00016V8.28L11.1335 10.0867L10.8002 10.6667L7.3335 8.66667V4.66667Z" fill="black"/>
</svg>
