<svg width="17" height="17" viewBox="0 0 17 17" fill="none" xmlns="http://www.w3.org/2000/svg">
<path d="M15.876 13.3556L10.6251 4.60594V1.0625H11.1563C11.4485 1.0625 11.6876 0.823438 11.6876 0.53125C11.6876 0.239062 11.4485 0 11.1563 0H5.84384C5.55165 0 5.31259 0.239062 5.31259 0.53125C5.31259 0.823438 5.55165 1.0625 5.84384 1.0625H6.37509V4.60594L1.12422 13.3556C-0.0785346 15.3595 0.85009 17 3.18759 17H13.8126C16.1501 17 17.0787 15.3606 15.876 13.3556ZM4.00147 10.625L7.43759 4.89813V1.0625H9.56259V4.89813L12.9987 10.625H4.00147Z" fill="#FFAC37"/>
</svg>
