<svg width="97" height="142" viewBox="0 0 97 142" fill="none" xmlns="http://www.w3.org/2000/svg">
<path d="M36.8816 131.437C29.6792 136.222 13.5068 142.334 6.43542 128.5C-2.40377 111.208 30.0066 79.5607 91.881 80.2132" stroke="#FF6823" stroke-width="9" stroke-linecap="round"/>
<path d="M68.4871 23.5481C70.0987 19.4343 74.7432 17.3982 78.8607 19.0004L84.6869 21.2674C88.8045 22.8696 90.8359 27.5034 89.2242 31.6172L59.7863 106.758C58.9805 108.815 56.6582 109.833 54.5995 109.032L41.3178 103.864C39.2591 103.062 38.2434 100.746 39.0492 98.6886L68.4871 23.5481Z" fill="#213448"/>
<path d="M86.8412 37.6763L58.104 110.975C56.8944 114.06 53.4099 115.587 50.3215 114.386L40.8009 110.684C37.7126 109.484 36.1889 106.009 37.3981 102.924L38.5609 99.9563C37.7783 102.005 38.7939 104.301 40.8418 105.097L54.0905 110.248C56.1494 111.049 58.4722 110.03 59.2786 107.974L86.8575 37.6292C86.8516 37.6447 86.8472 37.6608 86.8412 37.6763Z" fill="#213448"/>
<path d="M87.544 13.9595C91.6618 15.5603 93.6926 20.1924 92.0796 24.3055L90.2892 28.8702C91.8565 24.7731 89.8271 20.1812 85.7305 18.5886L79.927 16.3325C75.809 14.7318 71.1626 16.7687 69.5496 20.8819L61.3939 41.6777C61.4017 41.657 61.4092 41.6362 61.4173 41.6156L71.3631 16.2528C72.9762 12.1396 77.6226 10.1027 81.7406 11.7034L87.544 13.9595Z" fill="#213448"/>
<path d="M82.5795 3.72438C83.3853 1.66746 85.7075 0.649416 87.7663 1.45051L90.0695 2.3467C92.1282 3.1478 93.144 5.46468 92.3381 7.52159L90.2252 12.9149L80.4665 9.11764L82.5795 3.72438Z" fill="#213448"/>
<path d="M55.3689 115.024C55.2321 115.703 54.8578 116.348 54.2249 116.822L43.4738 124.874C41.6895 126.21 39.1244 125.213 38.7215 123.027L36.2954 109.853C36.1549 109.09 36.3103 108.375 36.6597 107.788C37.1065 109.621 38.4118 111.214 40.3067 111.95L49.8191 115.649C51.7282 116.391 53.788 116.09 55.3689 115.024Z" fill="#213448"/>
</svg>
