<svg width="40" height="40" viewBox="0 0 40 40" fill="none" xmlns="http://www.w3.org/2000/svg">
<path d="M21.666 15.0002H30.8327L21.666 5.8335V15.0002ZM9.99935 3.3335H23.3327L33.3327 13.3335V33.3335C33.3327 34.2176 32.9815 35.0654 32.3564 35.6905C31.7313 36.3156 30.8834 36.6668 29.9993 36.6668H9.99935C9.11529 36.6668 8.26745 36.3156 7.64233 35.6905C7.0172 35.0654 6.66602 34.2176 6.66602 33.3335V6.66683C6.66602 5.78277 7.0172 4.93493 7.64233 4.30981C8.26745 3.68469 9.11529 3.3335 9.99935 3.3335ZM18.216 20.7335C18.8994 22.2335 19.766 23.4668 20.766 24.3168L21.4493 24.8502C19.9993 25.1168 17.9993 25.5835 15.8827 26.4002L15.6993 26.4668L16.5327 24.7335C17.2827 23.2835 17.8327 21.9668 18.216 20.7335ZM29.016 27.0835C29.316 26.7835 29.466 26.4002 29.4827 25.9835C29.5327 25.6502 29.4493 25.3335 29.2827 25.0668C28.7993 24.2835 27.5494 23.9168 25.4827 23.9168L23.3327 24.0335L21.8827 23.0668C20.8327 22.2002 19.8827 20.6835 19.216 18.8002L19.2827 18.5668C19.8327 16.3502 20.3493 13.6668 19.2493 12.5668C19.1148 12.4362 18.9557 12.3335 18.7811 12.2649C18.6066 12.1962 18.4202 12.1629 18.2327 12.1668H17.8327C17.216 12.1668 16.666 12.8168 16.516 13.4502C15.8993 15.6668 16.266 16.8835 16.8827 18.9002V18.9168C16.466 20.3835 15.9327 22.0835 15.0827 23.8002L13.4827 26.8002L11.9993 27.6168C9.99935 28.8668 9.04935 30.2668 8.86602 31.1502C8.79935 31.4668 8.83268 31.7502 8.94935 32.0502L8.99935 32.1335L9.79935 32.6502L10.5327 32.8335C11.8827 32.8335 13.416 31.2502 15.4827 27.7168L15.7827 27.6002C17.4994 27.0502 19.6327 26.6668 22.4993 26.3502C24.216 27.2002 26.2327 27.5835 27.4993 27.5835C28.2327 27.5835 28.7327 27.4002 29.016 27.0835ZM28.3327 25.9002L28.4827 26.0835C28.466 26.2502 28.416 26.2668 28.3327 26.3002H28.266L27.9494 26.3335C27.1827 26.3335 25.9993 26.0168 24.7827 25.4835C24.9327 25.3168 24.9994 25.3168 25.166 25.3168C27.4994 25.3168 28.166 25.7335 28.3327 25.9002ZM13.0493 28.3335C11.966 30.3168 10.9827 31.4168 10.2327 31.6668C10.316 31.0335 11.066 29.9335 12.2493 28.8502L13.0493 28.3335ZM18.0827 16.8168C17.6994 15.3168 17.6827 14.1002 17.966 13.4002L18.0827 13.2002L18.3327 13.2835C18.616 13.6835 18.6493 14.2168 18.4827 15.1168L18.4327 15.3835L18.166 16.7502L18.0827 16.8168Z" fill="#EF5350"/>
</svg>
