<svg width="24" height="24" viewBox="0 0 24 24" fill="none" xmlns="http://www.w3.org/2000/svg">
<path d="M12 5.49805C12.1326 5.49805 12.2597 5.55076 12.3535 5.64453C12.4473 5.7383 12.5 5.86544 12.5 5.99805V11.498H18C18.1326 11.498 18.2597 11.5508 18.3535 11.6445C18.4473 11.7383 18.5 11.8654 18.5 11.998C18.5 12.1307 18.4473 12.2578 18.3535 12.3516C18.2597 12.4453 18.1326 12.498 18 12.498H12.5V17.998C12.5 18.1307 12.4473 18.2578 12.3535 18.3516C12.2597 18.4453 12.1326 18.498 12 18.498C11.8674 18.498 11.7403 18.4453 11.6465 18.3516C11.5527 18.2578 11.5 18.1307 11.5 17.998V12.498H6C5.86739 12.498 5.74025 12.4453 5.64648 12.3516C5.55272 12.2578 5.5 12.1307 5.5 11.998C5.5 11.8654 5.55272 11.7383 5.64648 11.6445C5.74025 11.5508 5.86739 11.498 6 11.498H11.5V5.99805C11.5 5.86544 11.5527 5.7383 11.6465 5.64453C11.7169 5.57413 11.8061 5.52698 11.9023 5.50781L12 5.49805Z" fill="#101828" stroke="white"/>
</svg>
