<svg width="24" height="25" viewBox="0 0 24 25" fill="none" xmlns="http://www.w3.org/2000/svg">
<g clip-path="url(#clip0_1412_11499)">
<path d="M15.73 3.5H8.27L3 8.77V16.23L8.27 21.5H15.73L21 16.23V8.77L15.73 3.5ZM19 15.4L14.9 19.5H9.1L5 15.4V9.6L9.1 5.5H14.9L19 9.6V15.4Z" fill="#323232"/>
<path d="M12 17.5C12.5523 17.5 13 17.0523 13 16.5C13 15.9477 12.5523 15.5 12 15.5C11.4477 15.5 11 15.9477 11 16.5C11 17.0523 11.4477 17.5 12 17.5Z" fill="#323232"/>
<path d="M11 7.5H13V14.5H11V7.5Z" fill="#323232"/>
</g>
<defs>
<clipPath id="clip0_1412_11499">
<rect width="24" height="24" fill="white" transform="translate(0 0.5)"/>
</clipPath>
</defs>
</svg>
