<svg width="24" height="25" viewBox="0 0 24 25" fill="none" xmlns="http://www.w3.org/2000/svg">
<g clip-path="url(#clip0_1412_11515)">
<path d="M21.6698 18.6701L16.3698 13.3701H15.3798L12.8398 15.9101V16.9001L18.1398 22.2001C18.5298 22.5901 19.1598 22.5901 19.5498 22.2001L21.6698 20.0801C22.0598 19.7001 22.0598 19.0601 21.6698 18.6701ZM18.8398 20.0901L14.5998 15.8501L15.3098 15.1401L19.5498 19.3801L18.8398 20.0901Z" fill="#323232"/>
<path d="M17.34 10.69L18.75 9.28L20.87 11.4C22.04 10.23 22.04 8.33 20.87 7.16L17.33 3.62L15.92 5.03V2.21L15.22 1.5L11.68 5.04L12.39 5.75H15.22L13.81 7.16L14.87 8.22L11.98 11.11L7.85 6.98V5.56L4.83 2.54L2 5.37L5.03 8.4H6.44L10.57 12.53L9.72 13.38H7.6L2.3 18.68C1.91 19.07 1.91 19.7 2.3 20.09L4.42 22.21C4.81 22.6 5.44 22.6 5.83 22.21L11.13 16.91V14.79L16.28 9.64L17.34 10.69ZM9.36 15.84L5.12 20.08L4.41 19.37L8.65 15.13L9.36 15.84Z" fill="#323232"/>
</g>
<defs>
<clipPath id="clip0_1412_11515">
<rect width="24" height="24" fill="white" transform="translate(0 0.5)"/>
</clipPath>
</defs>
</svg>
